<svg version="1.1" xmlns="http://www.w3.org/2000/svg" xmlns:xlink="http://www.w3.org/1999/xlink" width="828" height="1772"><defs></defs><g><g transform="translate(10,10) scale(1,1)"><path fill="none" stroke="#000000" d="M 0 0 L 808 0 L 808 1728 L 0 1728 L 0 0" stroke-miterlimit="10"></path></g><g transform="translate(10,10) scale(1,1)"><path fill="#ffffff" stroke="none" d="M 0 0 L 0 22 L 163 22 L 174 11 L 174 0 L 0 0"></path></g><g transform="translate(10,10) scale(1,1)"><path fill="none" stroke="#000000" d="M 0 0 L 0 22 L 163 22 L 174 11 L 174 0 L 0 0 L 0 0" stroke-miterlimit="10"></path></g><g transform="translate(10,10) scale(1,1)"><g><path fill="none" stroke="none"></path><text fill="#000000" stroke="none" font-family="Arial" font-size="13px" font-style="normal" font-weight="normal" text-decoration="none" x="71" y="17.5">Success tasks</text></g></g><g transform="translate(10,10) scale(1,1)"><g><path fill="none" stroke="none"></path><text fill="#000000" stroke="none" font-family="Arial" font-size="13px" font-style="normal" font-weight="bold" text-decoration="none" x="5" y="17.5">interaction</text></g></g><g transform="translate(10,10) scale(1,1)"><rect fill="#C0C0C0" stroke="none" x="47" y="47" width="46" height="39" opacity="0.2"></rect></g><g transform="translate(10,10) scale(1,1)"><rect fill="#ffffff" stroke="none" x="40" y="40" width="46" height="39"></rect></g><g transform="translate(10,10) scale(1,1)"><path fill="none" stroke="#000000" d="M 40 40 L 86 40 L 86 79 L 40 79 L 40 40 Z Z" stroke-miterlimit="10"></path></g><g transform="translate(10,10) scale(1,1)"><g><path fill="none" stroke="none"></path><text fill="#000000" stroke="none" font-family="Arial" font-size="13px" font-style="normal" font-weight="bold" text-decoration="none" x="50.5" y="59.5">user</text></g></g><g transform="translate(10,10) scale(1,1)"><path fill="none" stroke="#000000" d="M 64.5 80 L 64.5 1744" stroke-miterlimit="10" stroke-dasharray="3"></path></g><g transform="translate(10,10) scale(1,1)"><rect fill="#C0C0C0" stroke="none" x="215" y="47" width="82" height="39" opacity="0.2"></rect></g><g transform="translate(10,10) scale(1,1)"><rect fill="#ffffff" stroke="none" x="208" y="40" width="82" height="39"></rect></g><g transform="translate(10,10) scale(1,1)"><path fill="none" stroke="#000000" d="M 208 40 L 290 40 L 290 79 L 208 79 L 208 40 Z Z" stroke-miterlimit="10"></path></g><g transform="translate(10,10) scale(1,1)"><g><path fill="none" stroke="none"></path><text fill="#000000" stroke="none" font-family="Arial" font-size="13px" font-style="normal" font-weight="bold" text-decoration="none" x="219.5" y="59.5">webserver</text></g></g><g transform="translate(10,10) scale(1,1)"><path fill="none" stroke="#000000" d="M 250.5 80 L 250.5 1752" stroke-miterlimit="10" stroke-dasharray="3"></path></g><g transform="translate(10,10) scale(1,1)"><rect fill="#C0C0C0" stroke="none" x="391" y="47" width="94" height="39" opacity="0.2"></rect></g><g transform="translate(10,10) scale(1,1)"><rect fill="#ffffff" stroke="none" x="384" y="40" width="94" height="39"></rect></g><g transform="translate(10,10) scale(1,1)"><path fill="none" stroke="#000000" d="M 384 40 L 478 40 L 478 79 L 384 79 L 384 40 Z Z" stroke-miterlimit="10"></path></g><g transform="translate(10,10) scale(1,1)"><g><path fill="none" stroke="none"></path><text fill="#000000" stroke="none" font-family="Arial" font-size="13px" font-style="normal" font-weight="bold" text-decoration="none" x="395.5" y="59.5">memcached</text></g></g><g transform="translate(10,10) scale(1,1)"><path fill="none" stroke="#000000" d="M 432.5 80 L 432.5 1736" stroke-miterlimit="10" stroke-dasharray="3"></path></g><g transform="translate(10,10) scale(1,1)"><rect fill="#C0C0C0" stroke="none" x="572" y="47" width="79" height="39" opacity="0.2"></rect></g><g transform="translate(10,10) scale(1,1)"><rect fill="#ffffff" stroke="none" x="565" y="40" width="79" height="39"></rect></g><g transform="translate(10,10) scale(1,1)"><path fill="none" stroke="#000000" d="M 565 40 L 644 40 L 644 79 L 565 79 L 565 40 Z Z" stroke-miterlimit="10"></path></g><g transform="translate(10,10) scale(1,1)"><g><path fill="none" stroke="none"></path><text fill="#000000" stroke="none" font-family="Arial" font-size="13px" font-style="normal" font-weight="bold" text-decoration="none" x="578" y="59.5">mongodb</text></g></g><g transform="translate(10,10) scale(1,1)"><path fill="none" stroke="#000000" d="M 605.5 80 L 605.5 1744" stroke-miterlimit="10" stroke-dasharray="3"></path></g><g transform="translate(10,10) scale(1,1)"><path fill="none" stroke="#000000" d="M 16 352 L 728 352 L 728 688 L 16 688 L 16 352" stroke-miterlimit="10"></path></g><g transform="translate(10,10) scale(1,1)"><path fill="#ffffff" stroke="none" d="M 16 352 L 16 374 L 83 374 L 94 363 L 94 352 L 16 352"></path></g><g transform="translate(10,10) scale(1,1)"><path fill="none" stroke="#000000" d="M 16 352 L 16 374 L 83 374 L 94 363 L 94 352 L 16 352 L 16 352" stroke-miterlimit="10"></path></g><g transform="translate(10,10) scale(1,1)"><g><path fill="none" stroke="none"></path><text fill="#000000" stroke="none" font-family="Arial" font-size="13px" font-style="normal" font-weight="normal" text-decoration="none" x="48" y="369.5">show</text></g></g><g transform="translate(10,10) scale(1,1)"><g><path fill="none" stroke="none"></path><text fill="#000000" stroke="none" font-family="Arial" font-size="13px" font-style="normal" font-weight="bold" text-decoration="none" x="21" y="369.5">seq</text></g></g><g transform="translate(10,10) scale(1,1)"><path fill="none" stroke="#000000" d="M 16 441 L 728 441" stroke-miterlimit="10" stroke-dasharray="10,3"></path></g><g transform="translate(10,10) scale(1,1)"><g><path fill="none" stroke="none"></path><text fill="#000000" stroke="none" font-family="Arial" font-size="13px" font-style="normal" font-weight="normal" text-decoration="none" x="35.5" y="468.5">[cached]</text></g></g><g transform="translate(10,10) scale(1,1)"><path fill="none" stroke="#000000" d="M 16 545 L 728 545" stroke-miterlimit="10" stroke-dasharray="10,3"></path></g><g transform="translate(10,10) scale(1,1)"><g><path fill="none" stroke="none"></path><text fill="#000000" stroke="none" font-family="Arial" font-size="13px" font-style="normal" font-weight="normal" text-decoration="none" x="35.5" y="572.5">[not cached]</text></g></g><g transform="translate(10,10) scale(1,1)"><path fill="none" stroke="#000000" d="M 16 104 L 728 104 L 728 328 L 16 328 L 16 104" stroke-miterlimit="10"></path></g><g transform="translate(10,10) scale(1,1)"><path fill="#ffffff" stroke="none" d="M 16 104 L 16 126 L 89 126 L 100 115 L 100 104 L 16 104"></path></g><g transform="translate(10,10) scale(1,1)"><path fill="none" stroke="#000000" d="M 16 104 L 16 126 L 89 126 L 100 115 L 100 104 L 16 104 L 16 104" stroke-miterlimit="10"></path></g><g transform="translate(10,10) scale(1,1)"><g><path fill="none" stroke="none"></path><text fill="#000000" stroke="none" font-family="Arial" font-size="13px" font-style="normal" font-weight="normal" text-decoration="none" x="48" y="121.5">create</text></g></g><g transform="translate(10,10) scale(1,1)"><g><path fill="none" stroke="none"></path><text fill="#000000" stroke="none" font-family="Arial" font-size="13px" font-style="normal" font-weight="bold" text-decoration="none" x="21" y="121.5">seq</text></g></g><g transform="translate(10,10) scale(1,1)"><path fill="none" stroke="#000000" d="M 16 712 L 728 712 L 728 1000 L 16 1000 L 16 712" stroke-miterlimit="10"></path></g><g transform="translate(10,10) scale(1,1)"><path fill="#ffffff" stroke="none" d="M 16 712 L 16 734 L 92 734 L 103 723 L 103 712 L 16 712"></path></g><g transform="translate(10,10) scale(1,1)"><path fill="none" stroke="#000000" d="M 16 712 L 16 734 L 92 734 L 103 723 L 103 712 L 16 712 L 16 712" stroke-miterlimit="10"></path></g><g transform="translate(10,10) scale(1,1)"><g><path fill="none" stroke="none"></path><text fill="#000000" stroke="none" font-family="Arial" font-size="13px" font-style="normal" font-weight="normal" text-decoration="none" x="48" y="729.5">update</text></g></g><g transform="translate(10,10) scale(1,1)"><g><path fill="none" stroke="none"></path><text fill="#000000" stroke="none" font-family="Arial" font-size="13px" font-style="normal" font-weight="bold" text-decoration="none" x="21" y="729.5">seq</text></g></g><g transform="translate(10,10) scale(1,1)"><g><path fill="none" stroke="none"></path><text fill="#000000" stroke="none" font-family="Arial" font-size="13px" font-style="normal" font-weight="normal" text-decoration="none" x="35.5" y="762.5">[success]</text></g></g><g transform="translate(10,10) scale(1,1)"><path fill="none" stroke="#000000" d="M 16 865 L 728 865" stroke-miterlimit="10" stroke-dasharray="10,3"></path></g><g transform="translate(10,10) scale(1,1)"><g><path fill="none" stroke="none"></path><text fill="#000000" stroke="none" font-family="Arial" font-size="13px" font-style="normal" font-weight="normal" text-decoration="none" x="35.5" y="892.5">[invalid document]</text></g></g><g transform="translate(10,10) scale(1,1)"><path fill="none" stroke="#000000" d="M 16 1032 L 728 1032 L 728 1344 L 16 1344 L 16 1032" stroke-miterlimit="10"></path></g><g transform="translate(10,10) scale(1,1)"><path fill="#ffffff" stroke="none" d="M 16 1032 L 16 1054 L 84 1054 L 95 1043 L 95 1032 L 16 1032"></path></g><g transform="translate(10,10) scale(1,1)"><path fill="none" stroke="#000000" d="M 16 1032 L 16 1054 L 84 1054 L 95 1043 L 95 1032 L 16 1032 L 16 1032" stroke-miterlimit="10"></path></g><g transform="translate(10,10) scale(1,1)"><g><path fill="none" stroke="none"></path><text fill="#000000" stroke="none" font-family="Arial" font-size="13px" font-style="normal" font-weight="normal" text-decoration="none" x="48" y="1049.5">index</text></g></g><g transform="translate(10,10) scale(1,1)"><g><path fill="none" stroke="none"></path><text fill="#000000" stroke="none" font-family="Arial" font-size="13px" font-style="normal" font-weight="bold" text-decoration="none" x="21" y="1049.5">seq</text></g></g><g transform="translate(10,10) scale(1,1)"><g><path fill="none" stroke="none"></path><text fill="#000000" stroke="none" font-family="Arial" font-size="13px" font-style="normal" font-weight="normal" text-decoration="none" x="35.5" y="1082.5">[cached]</text></g></g><g transform="translate(10,10) scale(1,1)"><path fill="none" stroke="#000000" d="M 16 1217 L 728 1217" stroke-miterlimit="10" stroke-dasharray="10,3"></path></g><g transform="translate(10,10) scale(1,1)"><g><path fill="none" stroke="none"></path><text fill="#000000" stroke="none" font-family="Arial" font-size="13px" font-style="normal" font-weight="normal" text-decoration="none" x="35.5" y="1244.5">[not cached]</text></g></g><g transform="translate(10,10) scale(1,1)"><path fill="none" stroke="#000000" d="M 16 1368 L 728 1368 L 728 1576 L 16 1576 L 16 1368" stroke-miterlimit="10"></path></g><g transform="translate(10,10) scale(1,1)"><path fill="#ffffff" stroke="none" d="M 16 1368 L 16 1390 L 88 1390 L 99 1379 L 99 1368 L 16 1368"></path></g><g transform="translate(10,10) scale(1,1)"><path fill="none" stroke="#000000" d="M 16 1368 L 16 1390 L 88 1390 L 99 1379 L 99 1368 L 16 1368 L 16 1368" stroke-miterlimit="10"></path></g><g transform="translate(10,10) scale(1,1)"><g><path fill="none" stroke="none"></path><text fill="#000000" stroke="none" font-family="Arial" font-size="13px" font-style="normal" font-weight="normal" text-decoration="none" x="48" y="1385.5">delete</text></g></g><g transform="translate(10,10) scale(1,1)"><g><path fill="none" stroke="none"></path><text fill="#000000" stroke="none" font-family="Arial" font-size="13px" font-style="normal" font-weight="bold" text-decoration="none" x="21" y="1385.5">seq</text></g></g><g transform="translate(10,10) scale(1,1)"><path fill="none" stroke="#000000" d="M 64 152 L 243 152" stroke-miterlimit="10"></path></g><g transform="translate(10,10) scale(1,1)"><path fill="#000000" stroke="none" d="M 232.83732514237585 156.209517756016 L 243 152 L 232.83732514237585 147.790482243984"></path></g><g transform="translate(10,10) scale(1,1)"><path fill="none" stroke="#000000" d="M 232.83732514237585 156.209517756016 L 243 152 L 232.83732514237585 147.790482243984 L 232.83732514237585 156.209517756016" stroke-miterlimit="10"></path></g><g transform="translate(10,10) scale(1,1)"><g><path fill="none" stroke="none"></path><text fill="#000000" stroke="none" font-family="Arial" font-size="13px" font-style="normal" font-weight="normal" text-decoration="none" x="76.5" y="148.5">1 : create task {document}</text></g></g><g transform="translate(10,10) scale(1,1)"><rect fill="#ffffff" stroke="none" x="243" y="152" width="13" height="135"></rect></g><g transform="translate(10,10) scale(1,1)"><path fill="none" stroke="#000000" d="M 243 152 L 256 152 L 256 287 L 243 287 L 243 152 Z Z" stroke-miterlimit="10"></path></g><g transform="translate(10,10) scale(1,1)"><path fill="none" stroke="#000000" d="M 256 152 L 286 152 L 286 172 L 263 172" stroke-miterlimit="10"></path></g><g transform="translate(10,10) scale(1,1)"><path fill="#000000" stroke="none" d="M 273.16267485762415 167.790482243984 L 263 172 L 273.16267485762415 176.209517756016"></path></g><g transform="translate(10,10) scale(1,1)"><path fill="none" stroke="#000000" d="M 273.16267485762415 167.790482243984 L 263 172 L 273.16267485762415 176.209517756016 L 273.16267485762415 167.790482243984" stroke-miterlimit="10"></path></g><g transform="translate(10,10) scale(1,1)"><g><path fill="none" stroke="none"></path><text fill="#000000" stroke="none" font-family="Arial" font-size="13px" font-style="normal" font-weight="normal" text-decoration="none" x="269.5" y="167.5">2 : verify</text></g></g><g transform="translate(10,10) scale(1,1)"><rect fill="#ffffff" stroke="none" x="250" y="172" width="13" height="28"></rect></g><g transform="translate(10,10) scale(1,1)"><path fill="none" stroke="#000000" d="M 250 172 L 263 172 L 263 200 L 250 200 L 250 172 Z Z" stroke-miterlimit="10"></path></g><g transform="translate(10,10) scale(1,1)"><path fill="none" stroke="#000000" d="M 263 184 L 598 184" stroke-miterlimit="10"></path></g><g transform="translate(10,10) scale(1,1)"><path fill="none" stroke="#000000" d="M 587.8373251423759 188.209517756016 L 598 184 L 587.8373251423758 179.790482243984" stroke-miterlimit="10"></path></g><g transform="translate(10,10) scale(1,1)"><g><path fill="none" stroke="none"></path><text fill="#000000" stroke="none" font-family="Arial" font-size="13px" font-style="normal" font-weight="normal" text-decoration="none" x="406.5" y="180.5">3 : save</text></g></g><g transform="translate(10,10) scale(1,1)"><rect fill="#ffffff" stroke="none" x="598" y="184" width="13" height="86"></rect></g><g transform="translate(10,10) scale(1,1)"><path fill="none" stroke="#000000" d="M 598 184 L 611 184 L 611 270 L 598 270 L 598 184 Z Z" stroke-miterlimit="10"></path></g><g transform="translate(10,10) scale(1,1)"><path fill="none" stroke="#000000" d="M 598 224 L 263 224" stroke-miterlimit="10"></path></g><g transform="translate(10,10) scale(1,1)"><path fill="#000000" stroke="none" d="M 273.16267485762415 219.790482243984 L 263 224 L 273.16267485762415 228.209517756016"></path></g><g transform="translate(10,10) scale(1,1)"><path fill="none" stroke="#000000" d="M 273.16267485762415 219.790482243984 L 263 224 L 273.16267485762415 228.209517756016 L 273.16267485762415 219.790482243984" stroke-miterlimit="10"></path></g><g transform="translate(10,10) scale(1,1)"><g><path fill="none" stroke="none"></path><text fill="#000000" stroke="none" font-family="Arial" font-size="13px" font-style="normal" font-weight="normal" text-decoration="none" x="394.5" y="240.5">4 : success</text></g></g><g transform="translate(10,10) scale(1,1)"><rect fill="#ffffff" stroke="none" x="250" y="224" width="13" height="28"></rect></g><g transform="translate(10,10) scale(1,1)"><path fill="none" stroke="#000000" d="M 250 224 L 263 224 L 263 252 L 250 252 L 250 224 Z Z" stroke-miterlimit="10"></path></g><g transform="translate(10,10) scale(1,1)"><path fill="none" stroke="#000000" d="M 250 248 L 70 248" stroke-miterlimit="10"></path></g><g transform="translate(10,10) scale(1,1)"><path fill="#000000" stroke="none" d="M 80.16267485762415 243.790482243984 L 70 248 L 80.16267485762415 252.209517756016"></path></g><g transform="translate(10,10) scale(1,1)"><path fill="none" stroke="#000000" d="M 80.16267485762415 243.790482243984 L 70 248 L 80.16267485762415 252.209517756016 L 80.16267485762415 243.790482243984" stroke-miterlimit="10"></path></g><g transform="translate(10,10) scale(1,1)"><g><path fill="none" stroke="none"></path><text fill="#000000" stroke="none" font-family="Arial" font-size="13px" font-style="normal" font-weight="normal" text-decoration="none" x="104.5" y="264.5">5 : 201 {document}</text></g></g><g transform="translate(10,10) scale(1,1)"><rect fill="#ffffff" stroke="none" x="57" y="248" width="13" height="28"></rect></g><g transform="translate(10,10) scale(1,1)"><path fill="none" stroke="#000000" d="M 57 248 L 70 248 L 70 276 L 57 276 L 57 248 Z Z" stroke-miterlimit="10"></path></g><g transform="translate(10,10) scale(1,1)"><path fill="none" stroke="#000000" d="M 425 480 L 256 480" stroke-miterlimit="10"></path></g><g transform="translate(10,10) scale(1,1)"><path fill="#000000" stroke="none" d="M 266.16267485762415 475.790482243984 L 256 480 L 266.16267485762415 484.209517756016"></path></g><g transform="translate(10,10) scale(1,1)"><path fill="none" stroke="#000000" d="M 266.16267485762415 475.790482243984 L 256 480 L 266.16267485762415 484.209517756016 L 266.16267485762415 475.790482243984" stroke-miterlimit="10"></path></g><g transform="translate(10,10) scale(1,1)"><g><path fill="none" stroke="none"></path><text fill="#000000" stroke="none" font-family="Arial" font-size="13px" font-style="normal" font-weight="normal" text-decoration="none" x="270.5" y="496.5">8 : success {ducument}</text></g></g><g transform="translate(10,10) scale(1,1)"><rect fill="#ffffff" stroke="none" x="243" y="480" width="13" height="40"></rect></g><g transform="translate(10,10) scale(1,1)"><path fill="none" stroke="#000000" d="M 243 480 L 256 480 L 256 520 L 243 520 L 243 480 Z Z" stroke-miterlimit="10"></path></g><g transform="translate(10,10) scale(1,1)"><path fill="none" stroke="#000000" d="M 243 496 L 70 496" stroke-miterlimit="10"></path></g><g transform="translate(10,10) scale(1,1)"><path fill="#000000" stroke="none" d="M 80.16267485762415 491.790482243984 L 70 496 L 80.16267485762415 500.209517756016"></path></g><g transform="translate(10,10) scale(1,1)"><path fill="none" stroke="#000000" d="M 80.16267485762415 491.790482243984 L 70 496 L 80.16267485762415 500.209517756016 L 80.16267485762415 491.790482243984" stroke-miterlimit="10"></path></g><g transform="translate(10,10) scale(1,1)"><g><path fill="none" stroke="none"></path><text fill="#000000" stroke="none" font-family="Arial" font-size="13px" font-style="normal" font-weight="normal" text-decoration="none" x="100.5" y="512.5">9 : 200 {document}</text></g></g><g transform="translate(10,10) scale(1,1)"><rect fill="#ffffff" stroke="none" x="57" y="496" width="13" height="28"></rect></g><g transform="translate(10,10) scale(1,1)"><path fill="none" stroke="#000000" d="M 57 496 L 70 496 L 70 524 L 57 524 L 57 496 Z Z" stroke-miterlimit="10"></path></g><g transform="translate(10,10) scale(1,1)"><path fill="none" stroke="#000000" d="M 64 387 L 243 387" stroke-miterlimit="10"></path></g><g transform="translate(10,10) scale(1,1)"><path fill="#000000" stroke="none" d="M 232.83732514237585 391.209517756016 L 243 387 L 232.83732514237585 382.790482243984"></path></g><g transform="translate(10,10) scale(1,1)"><path fill="none" stroke="#000000" d="M 232.83732514237585 391.209517756016 L 243 387 L 232.83732514237585 382.790482243984 L 232.83732514237585 391.209517756016" stroke-miterlimit="10"></path></g><g transform="translate(10,10) scale(1,1)"><g><path fill="none" stroke="none"></path><text fill="#000000" stroke="none" font-family="Arial" font-size="13px" font-style="normal" font-weight="normal" text-decoration="none" x="117.5" y="383.5">6 : show {id}</text></g></g><g transform="translate(10,10) scale(1,1)"><rect fill="#ffffff" stroke="none" x="243" y="387" width="13" height="28"></rect></g><g transform="translate(10,10) scale(1,1)"><path fill="none" stroke="#000000" d="M 243 387 L 256 387 L 256 415 L 243 415 L 243 387 Z Z" stroke-miterlimit="10"></path></g><g transform="translate(10,10) scale(1,1)"><path fill="none" stroke="#000000" d="M 256 406 L 425 406" stroke-miterlimit="10"></path></g><g transform="translate(10,10) scale(1,1)"><path fill="#000000" stroke="none" d="M 414.83732514237585 410.209517756016 L 425 406 L 414.83732514237585 401.790482243984"></path></g><g transform="translate(10,10) scale(1,1)"><path fill="none" stroke="#000000" d="M 414.83732514237585 410.209517756016 L 425 406 L 414.83732514237585 401.790482243984 L 414.83732514237585 410.209517756016" stroke-miterlimit="10"></path></g><g transform="translate(10,10) scale(1,1)"><g><path fill="none" stroke="none"></path><text fill="#000000" stroke="none" font-family="Arial" font-size="13px" font-style="normal" font-weight="normal" text-decoration="none" x="301.5" y="402.5">7 : seach {id}</text></g></g><g transform="translate(10,10) scale(1,1)"><rect fill="#ffffff" stroke="none" x="425" y="406" width="13" height="242"></rect></g><g transform="translate(10,10) scale(1,1)"><path fill="none" stroke="#000000" d="M 425 406 L 438 406 L 438 648 L 425 648 L 425 406 Z Z" stroke-miterlimit="10"></path></g><g transform="translate(10,10) scale(1,1)"><path fill="none" stroke="#000000" d="M 605 598 L 445 598" stroke-miterlimit="10"></path></g><g transform="translate(10,10) scale(1,1)"><path fill="#000000" stroke="none" d="M 455.16267485762415 593.790482243984 L 445 598 L 455.16267485762415 602.209517756016"></path></g><g transform="translate(10,10) scale(1,1)"><path fill="none" stroke="#000000" d="M 455.16267485762415 593.790482243984 L 445 598 L 455.16267485762415 602.209517756016 L 455.16267485762415 593.790482243984" stroke-miterlimit="10"></path></g><g transform="translate(10,10) scale(1,1)"><g><path fill="none" stroke="none"></path><text fill="#000000" stroke="none" font-family="Arial" font-size="13px" font-style="normal" font-weight="normal" text-decoration="none" x="451.5" y="614.5">11 : success {document}</text></g></g><g transform="translate(10,10) scale(1,1)"><rect fill="#ffffff" stroke="none" x="432" y="598" width="13" height="28"></rect></g><g transform="translate(10,10) scale(1,1)"><path fill="none" stroke="#000000" d="M 432 598 L 445 598 L 445 626 L 432 626 L 432 598 Z Z" stroke-miterlimit="10"></path></g><g transform="translate(10,10) scale(1,1)"><path fill="none" stroke="#000000" d="M 438 568 L 598 568" stroke-miterlimit="10"></path></g><g transform="translate(10,10) scale(1,1)"><path fill="#000000" stroke="none" d="M 587.8373251423759 572.209517756016 L 598 568 L 587.8373251423758 563.790482243984"></path></g><g transform="translate(10,10) scale(1,1)"><path fill="none" stroke="#000000" d="M 587.8373251423759 572.209517756016 L 598 568 L 587.8373251423758 563.790482243984 L 587.8373251423759 572.209517756016" stroke-miterlimit="10"></path></g><g transform="translate(10,10) scale(1,1)"><g><path fill="none" stroke="none"></path><text fill="#000000" stroke="none" font-family="Arial" font-size="13px" font-style="normal" font-weight="normal" text-decoration="none" x="480.5" y="564.5">10 : get { id }</text></g></g><g transform="translate(10,10) scale(1,1)"><rect fill="#ffffff" stroke="none" x="598" y="568" width="13" height="28"></rect></g><g transform="translate(10,10) scale(1,1)"><path fill="none" stroke="#000000" d="M 598 568 L 611 568 L 611 596 L 598 596 L 598 568 Z Z" stroke-miterlimit="10"></path></g><g transform="translate(10,10) scale(1,1)"><path fill="none" stroke="#000000" d="M 432 616 L 256 616" stroke-miterlimit="10"></path></g><g transform="translate(10,10) scale(1,1)"><path fill="#000000" stroke="none" d="M 266.16267485762415 611.790482243984 L 256 616 L 266.16267485762415 620.209517756016"></path></g><g transform="translate(10,10) scale(1,1)"><path fill="none" stroke="#000000" d="M 266.16267485762415 611.790482243984 L 256 616 L 266.16267485762415 620.209517756016 L 266.16267485762415 611.790482243984" stroke-miterlimit="10"></path></g><g transform="translate(10,10) scale(1,1)"><g><path fill="none" stroke="none"></path><text fill="#000000" stroke="none" font-family="Arial" font-size="13px" font-style="normal" font-weight="normal" text-decoration="none" x="270.5" y="632.5">12 : success {document}</text></g></g><g transform="translate(10,10) scale(1,1)"><rect fill="#ffffff" stroke="none" x="243" y="616" width="13" height="28"></rect></g><g transform="translate(10,10) scale(1,1)"><path fill="none" stroke="#000000" d="M 243 616 L 256 616 L 256 644 L 243 644 L 243 616 Z Z" stroke-miterlimit="10"></path></g><g transform="translate(10,10) scale(1,1)"><path fill="none" stroke="#000000" d="M 243 629 L 70 629" stroke-miterlimit="10"></path></g><g transform="translate(10,10) scale(1,1)"><path fill="#000000" stroke="none" d="M 80.16267485762415 624.790482243984 L 70 629 L 80.16267485762415 633.209517756016"></path></g><g transform="translate(10,10) scale(1,1)"><path fill="none" stroke="#000000" d="M 80.16267485762415 624.790482243984 L 70 629 L 80.16267485762415 633.209517756016 L 80.16267485762415 624.790482243984" stroke-miterlimit="10"></path></g><g transform="translate(10,10) scale(1,1)"><g><path fill="none" stroke="none"></path><text fill="#000000" stroke="none" font-family="Arial" font-size="13px" font-style="normal" font-weight="normal" text-decoration="none" x="96.5" y="645.5">13 : 200 {document}</text></g></g><g transform="translate(10,10) scale(1,1)"><rect fill="#ffffff" stroke="none" x="57" y="629" width="13" height="28"></rect></g><g transform="translate(10,10) scale(1,1)"><path fill="none" stroke="#000000" d="M 57 629 L 70 629 L 70 657 L 57 657 L 57 629 Z Z" stroke-miterlimit="10"></path></g><g transform="translate(10,10) scale(1,1)"><path fill="none" stroke="#000000" d="M 64 778 L 243 778" stroke-miterlimit="10"></path></g><g transform="translate(10,10) scale(1,1)"><path fill="#000000" stroke="none" d="M 232.83732514237585 782.209517756016 L 243 778 L 232.83732514237585 773.790482243984"></path></g><g transform="translate(10,10) scale(1,1)"><path fill="none" stroke="#000000" d="M 232.83732514237585 782.209517756016 L 243 778 L 232.83732514237585 773.790482243984 L 232.83732514237585 782.209517756016" stroke-miterlimit="10"></path></g><g transform="translate(10,10) scale(1,1)"><g><path fill="none" stroke="none"></path><text fill="#000000" stroke="none" font-family="Arial" font-size="13px" font-style="normal" font-weight="normal" text-decoration="none" x="92.5" y="774.5">14 : update {params}</text></g></g><g transform="translate(10,10) scale(1,1)"><rect fill="#ffffff" stroke="none" x="243" y="778" width="13" height="158"></rect></g><g transform="translate(10,10) scale(1,1)"><path fill="none" stroke="#000000" d="M 243 778 L 256 778 L 256 936 L 243 936 L 243 778 Z Z" stroke-miterlimit="10"></path></g><g transform="translate(10,10) scale(1,1)"><path fill="none" stroke="#000000" d="M 256 784 L 286 784 L 286 804 L 263 804" stroke-miterlimit="10"></path></g><g transform="translate(10,10) scale(1,1)"><path fill="#000000" stroke="none" d="M 273.16267485762415 799.790482243984 L 263 804 L 273.16267485762415 808.209517756016"></path></g><g transform="translate(10,10) scale(1,1)"><path fill="none" stroke="#000000" d="M 273.16267485762415 799.790482243984 L 263 804 L 273.16267485762415 808.209517756016 L 273.16267485762415 799.790482243984" stroke-miterlimit="10"></path></g><g transform="translate(10,10) scale(1,1)"><g><path fill="none" stroke="none"></path><text fill="#000000" stroke="none" font-family="Arial" font-size="13px" font-style="normal" font-weight="normal" text-decoration="none" x="265.5" y="799.5">15 : verify</text></g></g><g transform="translate(10,10) scale(1,1)"><rect fill="#ffffff" stroke="none" x="250" y="804" width="13" height="28"></rect></g><g transform="translate(10,10) scale(1,1)"><path fill="none" stroke="#000000" d="M 250 804 L 263 804 L 263 832 L 250 832 L 250 804 Z Z" stroke-miterlimit="10"></path></g><g transform="translate(10,10) scale(1,1)"><path fill="none" stroke="#000000" d="M 250 806 L 70 806" stroke-miterlimit="10"></path></g><g transform="translate(10,10) scale(1,1)"><path fill="#000000" stroke="none" d="M 80.16267485762415 801.790482243984 L 70 806 L 80.16267485762415 810.209517756016"></path></g><g transform="translate(10,10) scale(1,1)"><path fill="none" stroke="#000000" d="M 80.16267485762415 801.790482243984 L 70 806 L 80.16267485762415 810.209517756016 L 80.16267485762415 801.790482243984" stroke-miterlimit="10"></path></g><g transform="translate(10,10) scale(1,1)"><g><path fill="none" stroke="none"></path><text fill="#000000" stroke="none" font-family="Arial" font-size="13px" font-style="normal" font-weight="normal" text-decoration="none" x="98.5" y="822.5">16 : 200, {document}</text></g></g><g transform="translate(10,10) scale(1,1)"><rect fill="#ffffff" stroke="none" x="57" y="806" width="13" height="28"></rect></g><g transform="translate(10,10) scale(1,1)"><path fill="none" stroke="#000000" d="M 57 806 L 70 806 L 70 834 L 57 834 L 57 806 Z Z" stroke-miterlimit="10"></path></g><g transform="translate(10,10) scale(1,1)"><path fill="none" stroke="#000000" d="M 256 840 L 598 840" stroke-miterlimit="10"></path></g><g transform="translate(10,10) scale(1,1)"><path fill="#000000" stroke="none" d="M 587.8373251423759 844.209517756016 L 598 840 L 587.8373251423758 835.790482243984"></path></g><g transform="translate(10,10) scale(1,1)"><path fill="none" stroke="#000000" d="M 587.8373251423759 844.209517756016 L 598 840 L 587.8373251423758 835.790482243984 L 587.8373251423759 844.209517756016" stroke-miterlimit="10"></path></g><g transform="translate(10,10) scale(1,1)"><g><path fill="none" stroke="none"></path><text fill="#000000" stroke="none" font-family="Arial" font-size="13px" font-style="normal" font-weight="normal" text-decoration="none" x="359.5" y="836.5">17 : update {document}</text></g></g><g transform="translate(10,10) scale(1,1)"><rect fill="#ffffff" stroke="none" x="598" y="840" width="13" height="28"></rect></g><g transform="translate(10,10) scale(1,1)"><path fill="none" stroke="#000000" d="M 598 840 L 611 840 L 611 868 L 598 868 L 598 840 Z Z" stroke-miterlimit="10"></path></g><g transform="translate(10,10) scale(1,1)"><path fill="none" stroke="#000000" d="M 243 912 L 70 912" stroke-miterlimit="10"></path></g><g transform="translate(10,10) scale(1,1)"><path fill="#000000" stroke="none" d="M 80.16267485762415 907.790482243984 L 70 912 L 80.16267485762415 916.209517756016"></path></g><g transform="translate(10,10) scale(1,1)"><path fill="none" stroke="#000000" d="M 80.16267485762415 907.790482243984 L 70 912 L 80.16267485762415 916.209517756016 L 80.16267485762415 907.790482243984" stroke-miterlimit="10"></path></g><g transform="translate(10,10) scale(1,1)"><g><path fill="none" stroke="none"></path><text fill="#000000" stroke="none" font-family="Arial" font-size="13px" font-style="normal" font-weight="normal" text-decoration="none" x="93.5" y="933.5">18 : 400, [ errors ]</text></g></g><g transform="translate(10,10) scale(1,1)"><rect fill="#ffffff" stroke="none" x="57" y="912" width="13" height="28"></rect></g><g transform="translate(10,10) scale(1,1)"><path fill="none" stroke="#000000" d="M 57 912 L 70 912 L 70 940 L 57 940 L 57 912 Z Z" stroke-miterlimit="10"></path></g><g transform="translate(10,10) scale(1,1)"><path fill="none" stroke="#000000" d="M 64 1096 L 243 1096" stroke-miterlimit="10"></path></g><g transform="translate(10,10) scale(1,1)"><path fill="#000000" stroke="none" d="M 232.83732514237585 1100.2095177560159 L 243 1096 L 232.83732514237585 1091.7904822439841"></path></g><g transform="translate(10,10) scale(1,1)"><path fill="none" stroke="#000000" d="M 232.83732514237585 1100.2095177560159 L 243 1096 L 232.83732514237585 1091.7904822439841 L 232.83732514237585 1100.2095177560159" stroke-miterlimit="10"></path></g><g transform="translate(10,10) scale(1,1)"><g><path fill="none" stroke="none"></path><text fill="#000000" stroke="none" font-family="Arial" font-size="13px" font-style="normal" font-weight="normal" text-decoration="none" x="105.5" y="1092.5">19 : index {filter}</text></g></g><g transform="translate(10,10) scale(1,1)"><rect fill="#ffffff" stroke="none" x="243" y="1096" width="13" height="80"></rect></g><g transform="translate(10,10) scale(1,1)"><path fill="none" stroke="#000000" d="M 243 1096 L 256 1096 L 256 1176 L 243 1176 L 243 1096 Z Z" stroke-miterlimit="10"></path></g><g transform="translate(10,10) scale(1,1)"><path fill="none" stroke="#000000" d="M 256 1120 L 425 1120" stroke-miterlimit="10"></path></g><g transform="translate(10,10) scale(1,1)"><path fill="#000000" stroke="none" d="M 414.83732514237585 1124.2095177560159 L 425 1120 L 414.83732514237585 1115.7904822439841"></path></g><g transform="translate(10,10) scale(1,1)"><path fill="none" stroke="#000000" d="M 414.83732514237585 1124.2095177560159 L 425 1120 L 414.83732514237585 1115.7904822439841 L 414.83732514237585 1124.2095177560159" stroke-miterlimit="10"></path></g><g transform="translate(10,10) scale(1,1)"><g><path fill="none" stroke="none"></path><text fill="#000000" stroke="none" font-family="Arial" font-size="13px" font-style="normal" font-weight="normal" text-decoration="none" x="288.5" y="1116.5">20 : search {filter}</text></g></g><g transform="translate(10,10) scale(1,1)"><rect fill="#ffffff" stroke="none" x="425" y="1120" width="13" height="176"></rect></g><g transform="translate(10,10) scale(1,1)"><path fill="none" stroke="#000000" d="M 425 1120 L 438 1120 L 438 1296 L 425 1296 L 425 1120 Z Z" stroke-miterlimit="10"></path></g><g transform="translate(10,10) scale(1,1)"><path fill="none" stroke="#000000" d="M 425 1144 L 263 1144" stroke-miterlimit="10"></path></g><g transform="translate(10,10) scale(1,1)"><path fill="#000000" stroke="none" d="M 273.16267485762415 1139.7904822439841 L 263 1144 L 273.16267485762415 1148.2095177560159"></path></g><g transform="translate(10,10) scale(1,1)"><path fill="none" stroke="#000000" d="M 273.16267485762415 1139.7904822439841 L 263 1144 L 273.16267485762415 1148.2095177560159 L 273.16267485762415 1139.7904822439841" stroke-miterlimit="10"></path></g><g transform="translate(10,10) scale(1,1)"><g><path fill="none" stroke="none"></path><text fill="#000000" stroke="none" font-family="Arial" font-size="13px" font-style="normal" font-weight="normal" text-decoration="none" x="270.5" y="1160.5">21 : success {document}</text></g></g><g transform="translate(10,10) scale(1,1)"><rect fill="#ffffff" stroke="none" x="250" y="1144" width="13" height="28"></rect></g><g transform="translate(10,10) scale(1,1)"><path fill="none" stroke="#000000" d="M 250 1144 L 263 1144 L 263 1172 L 250 1172 L 250 1144 Z Z" stroke-miterlimit="10"></path></g><g transform="translate(10,10) scale(1,1)"><path fill="none" stroke="#000000" d="M 250 1155 L 70 1155" stroke-miterlimit="10"></path></g><g transform="translate(10,10) scale(1,1)"><path fill="#000000" stroke="none" d="M 80.16267485762415 1150.7904822439841 L 70 1155 L 80.16267485762415 1159.2095177560159"></path></g><g transform="translate(10,10) scale(1,1)"><path fill="none" stroke="#000000" d="M 80.16267485762415 1150.7904822439841 L 70 1155 L 80.16267485762415 1159.2095177560159 L 80.16267485762415 1150.7904822439841" stroke-miterlimit="10"></path></g><g transform="translate(10,10) scale(1,1)"><g><path fill="none" stroke="none"></path><text fill="#000000" stroke="none" font-family="Arial" font-size="13px" font-style="normal" font-weight="normal" text-decoration="none" x="98.5" y="1171.5">22 : 200, {document}</text></g></g><g transform="translate(10,10) scale(1,1)"><rect fill="#ffffff" stroke="none" x="57" y="1155" width="13" height="28"></rect></g><g transform="translate(10,10) scale(1,1)"><path fill="none" stroke="#000000" d="M 57 1155 L 70 1155 L 70 1183 L 57 1183 L 57 1155 Z Z" stroke-miterlimit="10"></path></g><g transform="translate(10,10) scale(1,1)"><path fill="none" stroke="#000000" d="M 438 1240 L 598 1240" stroke-miterlimit="10"></path></g><g transform="translate(10,10) scale(1,1)"><path fill="#000000" stroke="none" d="M 587.8373251423759 1244.2095177560159 L 598 1240 L 587.8373251423758 1235.7904822439841"></path></g><g transform="translate(10,10) scale(1,1)"><path fill="none" stroke="#000000" d="M 587.8373251423759 1244.2095177560159 L 598 1240 L 587.8373251423758 1235.7904822439841 L 587.8373251423759 1244.2095177560159" stroke-miterlimit="10"></path></g><g transform="translate(10,10) scale(1,1)"><g><path fill="none" stroke="none"></path><text fill="#000000" stroke="none" font-family="Arial" font-size="13px" font-style="normal" font-weight="normal" text-decoration="none" x="466.5" y="1236.5">23 : search {filter}</text></g></g><g transform="translate(10,10) scale(1,1)"><rect fill="#ffffff" stroke="none" x="598" y="1240" width="13" height="28"></rect></g><g transform="translate(10,10) scale(1,1)"><path fill="none" stroke="#000000" d="M 598 1240 L 611 1240 L 611 1268 L 598 1268 L 598 1240 Z Z" stroke-miterlimit="10"></path></g><g transform="translate(10,10) scale(1,1)"><path fill="none" stroke="#000000" d="M 425 1260 L 256 1260" stroke-miterlimit="10"></path></g><g transform="translate(10,10) scale(1,1)"><path fill="#000000" stroke="none" d="M 266.16267485762415 1255.7904822439841 L 256 1260 L 266.16267485762415 1264.2095177560159"></path></g><g transform="translate(10,10) scale(1,1)"><path fill="none" stroke="#000000" d="M 266.16267485762415 1255.7904822439841 L 256 1260 L 266.16267485762415 1264.2095177560159 L 266.16267485762415 1255.7904822439841" stroke-miterlimit="10"></path></g><g transform="translate(10,10) scale(1,1)"><g><path fill="none" stroke="none"></path><text fill="#000000" stroke="none" font-family="Arial" font-size="13px" font-style="normal" font-weight="normal" text-decoration="none" x="263.5" y="1276.5">24 : success [documents]</text></g></g><g transform="translate(10,10) scale(1,1)"><rect fill="#ffffff" stroke="none" x="243" y="1260" width="13" height="28"></rect></g><g transform="translate(10,10) scale(1,1)"><path fill="none" stroke="#000000" d="M 243 1260 L 256 1260 L 256 1288 L 243 1288 L 243 1260 Z Z" stroke-miterlimit="10"></path></g><g transform="translate(10,10) scale(1,1)"><path fill="none" stroke="#000000" d="M 598 1261 L 445 1261" stroke-miterlimit="10"></path></g><g transform="translate(10,10) scale(1,1)"><path fill="#000000" stroke="none" d="M 455.16267485762415 1256.7904822439841 L 445 1261 L 455.16267485762415 1265.2095177560159"></path></g><g transform="translate(10,10) scale(1,1)"><path fill="none" stroke="#000000" d="M 455.16267485762415 1256.7904822439841 L 445 1261 L 455.16267485762415 1265.2095177560159 L 455.16267485762415 1256.7904822439841" stroke-miterlimit="10"></path></g><g transform="translate(10,10) scale(1,1)"><g><path fill="none" stroke="none"></path><text fill="#000000" stroke="none" font-family="Arial" font-size="13px" font-style="normal" font-weight="normal" text-decoration="none" x="444.5" y="1277.5">25 : success [documents]</text></g></g><g transform="translate(10,10) scale(1,1)"><rect fill="#ffffff" stroke="none" x="432" y="1261" width="13" height="28"></rect></g><g transform="translate(10,10) scale(1,1)"><path fill="none" stroke="#000000" d="M 432 1261 L 445 1261 L 445 1289 L 432 1289 L 432 1261 Z Z" stroke-miterlimit="10"></path></g><g transform="translate(10,10) scale(1,1)"><path fill="none" stroke="#000000" d="M 243 1273 L 70 1273" stroke-miterlimit="10"></path></g><g transform="translate(10,10) scale(1,1)"><path fill="#000000" stroke="none" d="M 80.16267485762415 1268.7904822439841 L 70 1273 L 80.16267485762415 1277.2095177560159"></path></g><g transform="translate(10,10) scale(1,1)"><path fill="none" stroke="#000000" d="M 80.16267485762415 1268.7904822439841 L 70 1273 L 80.16267485762415 1277.2095177560159 L 80.16267485762415 1268.7904822439841" stroke-miterlimit="10"></path></g><g transform="translate(10,10) scale(1,1)"><g><path fill="none" stroke="none"></path><text fill="#000000" stroke="none" font-family="Arial" font-size="13px" font-style="normal" font-weight="normal" text-decoration="none" x="91.5" y="1289.5">26 : 200, [documents]</text></g></g><g transform="translate(10,10) scale(1,1)"><rect fill="#ffffff" stroke="none" x="57" y="1273" width="13" height="28"></rect></g><g transform="translate(10,10) scale(1,1)"><path fill="none" stroke="#000000" d="M 57 1273 L 70 1273 L 70 1301 L 57 1301 L 57 1273 Z Z" stroke-miterlimit="10"></path></g><g transform="translate(10,10) scale(1,1)"><path fill="none" stroke="#000000" d="M 64 1401 L 243 1401" stroke-miterlimit="10"></path></g><g transform="translate(10,10) scale(1,1)"><path fill="#000000" stroke="none" d="M 232.83732514237585 1405.2095177560159 L 243 1401 L 232.83732514237585 1396.7904822439841"></path></g><g transform="translate(10,10) scale(1,1)"><path fill="none" stroke="#000000" d="M 232.83732514237585 1405.2095177560159 L 243 1401 L 232.83732514237585 1396.7904822439841 L 232.83732514237585 1405.2095177560159" stroke-miterlimit="10"></path></g><g transform="translate(10,10) scale(1,1)"><g><path fill="none" stroke="none"></path><text fill="#000000" stroke="none" font-family="Arial" font-size="13px" font-style="normal" font-weight="normal" text-decoration="none" x="111.5" y="1397.5">27 : delete {id}</text></g></g><g transform="translate(10,10) scale(1,1)"><rect fill="#ffffff" stroke="none" x="243" y="1401" width="13" height="90"></rect></g><g transform="translate(10,10) scale(1,1)"><path fill="none" stroke="#000000" d="M 243 1401 L 256 1401 L 256 1491 L 243 1491 L 243 1401 Z Z" stroke-miterlimit="10"></path></g><g transform="translate(10,10) scale(1,1)"><path fill="none" stroke="#000000" d="M 256 1424 L 598 1424" stroke-miterlimit="10"></path></g><g transform="translate(10,10) scale(1,1)"><path fill="#000000" stroke="none" d="M 587.8373251423759 1428.2095177560159 L 598 1424 L 587.8373251423758 1419.7904822439841"></path></g><g transform="translate(10,10) scale(1,1)"><path fill="none" stroke="#000000" d="M 587.8373251423759 1428.2095177560159 L 598 1424 L 587.8373251423758 1419.7904822439841 L 587.8373251423759 1428.2095177560159" stroke-miterlimit="10"></path></g><g transform="translate(10,10) scale(1,1)"><g><path fill="none" stroke="none"></path><text fill="#000000" stroke="none" font-family="Arial" font-size="13px" font-style="normal" font-weight="normal" text-decoration="none" x="385.5" y="1420.5">28 : delete {id}</text></g></g><g transform="translate(10,10) scale(1,1)"><rect fill="#ffffff" stroke="none" x="598" y="1424" width="13" height="28"></rect></g><g transform="translate(10,10) scale(1,1)"><path fill="none" stroke="#000000" d="M 598 1424 L 611 1424 L 611 1452 L 598 1452 L 598 1424 Z Z" stroke-miterlimit="10"></path></g><g transform="translate(10,10) scale(1,1)"><path fill="none" stroke="#000000" d="M 250 1480 L 70 1480" stroke-miterlimit="10"></path></g><g transform="translate(10,10) scale(1,1)"><path fill="#000000" stroke="none" d="M 80.16267485762415 1475.7904822439841 L 70 1480 L 80.16267485762415 1484.2095177560159"></path></g><g transform="translate(10,10) scale(1,1)"><path fill="none" stroke="#000000" d="M 80.16267485762415 1475.7904822439841 L 70 1480 L 80.16267485762415 1484.2095177560159 L 80.16267485762415 1475.7904822439841" stroke-miterlimit="10"></path></g><g transform="translate(10,10) scale(1,1)"><g><path fill="none" stroke="none"></path><text fill="#000000" stroke="none" font-family="Arial" font-size="13px" font-style="normal" font-weight="normal" text-decoration="none" x="135.5" y="1496.5">30 : 206</text></g></g><g transform="translate(10,10) scale(1,1)"><rect fill="#ffffff" stroke="none" x="57" y="1480" width="13" height="28"></rect></g><g transform="translate(10,10) scale(1,1)"><path fill="none" stroke="#000000" d="M 57 1480 L 70 1480 L 70 1508 L 57 1508 L 57 1480 Z Z" stroke-miterlimit="10"></path></g><g transform="translate(10,10) scale(1,1)"><path fill="none" stroke="#000000" d="M 605 1460 L 263 1460" stroke-miterlimit="10"></path></g><g transform="translate(10,10) scale(1,1)"><path fill="#000000" stroke="none" d="M 273.16267485762415 1455.7904822439841 L 263 1460 L 273.16267485762415 1464.2095177560159"></path></g><g transform="translate(10,10) scale(1,1)"><path fill="none" stroke="#000000" d="M 273.16267485762415 1455.7904822439841 L 263 1460 L 273.16267485762415 1464.2095177560159 L 273.16267485762415 1455.7904822439841" stroke-miterlimit="10"></path></g><g transform="translate(10,10) scale(1,1)"><g><path fill="none" stroke="none"></path><text fill="#000000" stroke="none" font-family="Arial" font-size="13px" font-style="normal" font-weight="normal" text-decoration="none" x="395.5" y="1476.5">29 : success</text></g></g><g transform="translate(10,10) scale(1,1)"><rect fill="#ffffff" stroke="none" x="250" y="1460" width="13" height="28"></rect></g><g transform="translate(10,10) scale(1,1)"><path fill="none" stroke="#000000" d="M 250 1460 L 263 1460 L 263 1488 L 250 1488 L 250 1460 Z Z" stroke-miterlimit="10"></path></g></g></svg>