<svg version="1.1" xmlns="http://www.w3.org/2000/svg" xmlns:xlink="http://www.w3.org/1999/xlink" width="670" height="484"><defs></defs><g><g transform="translate(-86,-46) scale(1,1)"><path fill="#ffffff" stroke="none" d="M 111.82072727272728 201.68 C 111.82072727272728 196.886167936 115.70656959767274 193 120.5 193 C 125.29343040232726 193 129.17927272727272 196.886167936 129.17927272727272 201.68 C 129.17927272727272 206.47383206400002 125.29343040232726 210.36 120.5 210.36 C 115.70656959767274 210.36 111.82072727272728 206.47383206400002 111.82072727272728 201.68 Z"></path></g><g transform="translate(-86,-46) scale(1,1)"><path fill="none" stroke="#000000" d="M 111.82072727272728 201.68 C 111.82072727272728 196.886167936 115.70656959767274 193 120.5 193 C 125.29343040232726 193 129.17927272727272 196.886167936 129.17927272727272 201.68 C 129.17927272727272 206.47383206400002 125.29343040232726 210.36 120.5 210.36 C 115.70656959767274 210.36 111.82072727272728 206.47383206400002 111.82072727272728 201.68 Z" stroke-miterlimit="10"></path></g><g transform="translate(-86,-46) scale(1,1)"><path fill="none" stroke="#000000" d="M 120.5 210.36 L 120.5 227.64" stroke-miterlimit="10"></path></g><g transform="translate(-86,-46) scale(1,1)"><path fill="none" stroke="#000000" d="M 111.31018181818183 216.84 L 129.68981818181817 216.84" stroke-miterlimit="10"></path></g><g transform="translate(-86,-46) scale(1,1)"><path fill="none" stroke="#000000" d="M 120.5 227.64 L 107.73636363636365 245" stroke-miterlimit="10"></path></g><g transform="translate(-86,-46) scale(1,1)"><path fill="none" stroke="#000000" d="M 120.5 227.64 L 133.26363636363635 245" stroke-miterlimit="10"></path></g><g transform="translate(-86,-46) scale(1,1)"><g><path fill="none" stroke="none"></path><text fill="#000000" stroke="none" font-family="Arial" font-size="13px" font-style="normal" font-weight="bold" text-decoration="none" x="108" y="265.5">user</text></g></g><g transform="translate(-86,-46) scale(1,1)"><path fill="#C0C0C0" stroke="none" d="M 423 80 C 423 70.6111584 446.7289056 63 476 63 C 505.2710944 63 529 70.6111584 529 80 C 529 89.3888416 505.2710944 97 476 97 C 446.7289056 97 423 89.3888416 423 80 Z" opacity="0.2"></path></g><g transform="translate(-86,-46) scale(1,1)"><path fill="#ffffff" stroke="none" d="M 416 73 C 416 63.6111584 439.7289056 56 469 56 C 498.2710944 56 522 63.6111584 522 73 C 522 82.3888416 498.2710944 90 469 90 C 439.7289056 90 416 82.3888416 416 73 Z"></path></g><g transform="translate(-86,-46) scale(1,1)"><path fill="none" stroke="#000000" d="M 416 73 C 416 63.6111584 439.7289056 56 469 56 C 498.2710944 56 522 63.6111584 522 73 C 522 82.3888416 498.2710944 90 469 90 C 439.7289056 90 416 82.3888416 416 73 Z" stroke-miterlimit="10"></path></g><g transform="translate(-86,-46) scale(1,1)"><g><path fill="none" stroke="none"></path><text fill="#000000" stroke="none" font-family="Arial" font-size="13px" font-style="normal" font-weight="bold" text-decoration="none" x="436.5" y="80">create task</text></g></g><g transform="translate(-86,-46) scale(1,1)"><path fill="none" stroke="#000000" d="M 146 219 L 429 91" stroke-miterlimit="10"></path></g><g transform="translate(-86,-46) scale(1,1)"><path fill="none" stroke="#000000" d="M 421.47517398778797 99.02352749642804 L 429 91 L 418.0056537977549 91.35263520127693" stroke-miterlimit="10"></path></g><g transform="translate(-86,-46) scale(1,1)"><g><path fill="none" stroke="none"></path><text fill="#000000" stroke="none" font-family="Arial" font-size="13px" font-style="normal" font-weight="normal" text-decoration="none" x="258.5" y="147.5">+wants</text></g></g><g transform="translate(-86,-46) scale(1,1)"><path fill="#C0C0C0" stroke="none" d="M 463 216 C 463 206.6111584 488.9674816 199 521 199 C 553.0325184 199 579 206.6111584 579 216 C 579 225.3888416 553.0325184 233 521 233 C 488.9674816 233 463 225.3888416 463 216 Z" opacity="0.2"></path></g><g transform="translate(-86,-46) scale(1,1)"><path fill="#ffffff" stroke="none" d="M 456 209 C 456 199.6111584 481.9674816 192 514 192 C 546.0325184 192 572 199.6111584 572 209 C 572 218.3888416 546.0325184 226 514 226 C 481.9674816 226 456 218.3888416 456 209 Z"></path></g><g transform="translate(-86,-46) scale(1,1)"><path fill="none" stroke="#000000" d="M 456 209 C 456 199.6111584 481.9674816 192 514 192 C 546.0325184 192 572 199.6111584 572 209 C 572 218.3888416 546.0325184 226 514 226 C 481.9674816 226 456 218.3888416 456 209 Z" stroke-miterlimit="10"></path></g><g transform="translate(-86,-46) scale(1,1)"><g><path fill="none" stroke="none"></path><text fill="#000000" stroke="none" font-family="Arial" font-size="13px" font-style="normal" font-weight="bold" text-decoration="none" x="479" y="216">show a task</text></g></g><g transform="translate(-86,-46) scale(1,1)"><path fill="none" stroke="#000000" d="M 146 230 L 455 212" stroke-miterlimit="10"></path></g><g transform="translate(-86,-46) scale(1,1)"><path fill="none" stroke="#000000" d="M 445.09932374901587 216.79339230328574 L 455 212 L 444.60972448205575 208.38860488713726" stroke-miterlimit="10"></path></g><g transform="translate(-86,-46) scale(1,1)"><g><path fill="none" stroke="none"></path><text fill="#000000" stroke="none" font-family="Arial" font-size="13px" font-style="normal" font-weight="normal" text-decoration="none" x="277.5" y="212.5">+wants</text></g></g><g transform="translate(-86,-46) scale(1,1)"><path fill="#C0C0C0" stroke="none" d="M 439 368 C 439 358.6111584 471.0116368 351 510.5 351 C 549.9883632 351 582 358.6111584 582 368 C 582 377.3888416 549.9883632 385 510.5 385 C 471.0116368 385 439 377.3888416 439 368 Z" opacity="0.2"></path></g><g transform="translate(-86,-46) scale(1,1)"><path fill="#ffffff" stroke="none" d="M 432 361 C 432 351.6111584 464.0116368 344 503.5 344 C 542.9883632 344 575 351.6111584 575 361 C 575 370.3888416 542.9883632 378 503.5 378 C 464.0116368 378 432 370.3888416 432 361 Z"></path></g><g transform="translate(-86,-46) scale(1,1)"><path fill="none" stroke="#000000" d="M 432 361 C 432 351.6111584 464.0116368 344 503.5 344 C 542.9883632 344 575 351.6111584 575 361 C 575 370.3888416 542.9883632 378 503.5 378 C 464.0116368 378 432 370.3888416 432 361 Z" stroke-miterlimit="10"></path></g><g transform="translate(-86,-46) scale(1,1)"><g><path fill="none" stroke="none"></path><text fill="#000000" stroke="none" font-family="Arial" font-size="13px" font-style="normal" font-weight="bold" text-decoration="none" x="460" y="368">show list tasks</text></g></g><g transform="translate(-86,-46) scale(1,1)"><path fill="none" stroke="#000000" d="M 146 240 L 450 343" stroke-miterlimit="10"></path></g><g transform="translate(-86,-46) scale(1,1)"><path fill="none" stroke="#000000" d="M 439.0239656005116 343.7257195472405 L 450 343 L 441.7256104324915 335.75193285867834" stroke-miterlimit="10"></path></g><g transform="translate(-86,-46) scale(1,1)"><g><path fill="none" stroke="none"></path><text fill="#000000" stroke="none" font-family="Arial" font-size="13px" font-style="normal" font-weight="normal" text-decoration="none" x="280.5" y="282.5">+wants</text></g></g><g transform="translate(-86,-46) scale(1,1)"><path fill="#C0C0C0" stroke="none" d="M 343 507 C 343 495.954304 378.36950079999997 487 422 487 C 465.63049920000003 487 501 495.954304 501 507 C 501 518.045696 465.63049920000003 527 422 527 C 378.36950079999997 527 343 518.045696 343 507 Z" opacity="0.2"></path></g><g transform="translate(-86,-46) scale(1,1)"><path fill="#ffffff" stroke="none" d="M 336 500 C 336 488.954304 371.36950079999997 480 415 480 C 458.63049920000003 480 494 488.954304 494 500 C 494 511.045696 458.63049920000003 520 415 520 C 371.36950079999997 520 336 511.045696 336 500 Z"></path></g><g transform="translate(-86,-46) scale(1,1)"><path fill="none" stroke="#000000" d="M 336 500 C 336 488.954304 371.36950079999997 480 415 480 C 458.63049920000003 480 494 488.954304 494 500 C 494 511.045696 458.63049920000003 520 415 520 C 371.36950079999997 520 336 511.045696 336 500 Z" stroke-miterlimit="10"></path></g><g transform="translate(-86,-46) scale(1,1)"><g><path fill="none" stroke="none"></path><text fill="#000000" stroke="none" font-family="Arial" font-size="13px" font-style="normal" font-weight="bold" text-decoration="none" x="368" y="507">show list filtered</text></g></g><g transform="translate(-86,-46) scale(1,1)"><path fill="none" stroke="#000000" d="M 428 479 L 492 379" stroke-miterlimit="10" stroke-dasharray="3"></path></g><g transform="translate(-86,-46) scale(1,1)"><path fill="none" stroke="#000000" d="M 490.067328968918 389.8288864933388 L 492 379 L 482.97621613597977 385.2905742802584" stroke-miterlimit="10"></path></g><g transform="translate(-86,-46) scale(1,1)"><g><path fill="none" stroke="none"></path><text fill="#000000" stroke="none" font-family="Arial" font-size="13px" font-style="normal" font-weight="normal" text-decoration="none" x="406.5" y="418.5">«include»</text></g></g><g transform="translate(-86,-46) scale(1,1)"><path fill="#C0C0C0" stroke="none" d="M 607 496 C 607 486.6111584 639.6832096 479 680 479 C 720.3167904 479 753 486.6111584 753 496 C 753 505.3888416 720.3167904 513 680 513 C 639.6832096 513 607 505.3888416 607 496 Z" opacity="0.2"></path></g><g transform="translate(-86,-46) scale(1,1)"><path fill="#ffffff" stroke="none" d="M 600 489 C 600 479.6111584 632.6832096 472 673 472 C 713.3167904 472 746 479.6111584 746 489 C 746 498.3888416 713.3167904 506 673 506 C 632.6832096 506 600 498.3888416 600 489 Z"></path></g><g transform="translate(-86,-46) scale(1,1)"><path fill="none" stroke="#000000" d="M 600 489 C 600 479.6111584 632.6832096 472 673 472 C 713.3167904 472 746 479.6111584 746 489 C 746 498.3888416 713.3167904 506 673 506 C 632.6832096 506 600 498.3888416 600 489 Z" stroke-miterlimit="10"></path></g><g transform="translate(-86,-46) scale(1,1)"><g><path fill="none" stroke="none"></path><text fill="#000000" stroke="none" font-family="Arial" font-size="13px" font-style="normal" font-weight="bold" text-decoration="none" x="629.5" y="496">show one page</text></g></g><g transform="translate(-86,-46) scale(1,1)"><path fill="none" stroke="#000000" d="M 649 471 L 527 379" stroke-miterlimit="10" stroke-dasharray="3"></path></g><g transform="translate(-86,-46) scale(1,1)"><path fill="none" stroke="#000000" d="M 537.6486674802002 381.7578761567783 L 527 379 L 532.5796320537196 388.4798579179809" stroke-miterlimit="10"></path></g><g transform="translate(-86,-46) scale(1,1)"><g><path fill="none" stroke="none"></path><text fill="#000000" stroke="none" font-family="Arial" font-size="13px" font-style="normal" font-weight="normal" text-decoration="none" x="535.5" y="436.5">«include»</text></g></g><g transform="translate(-86,-46) scale(1,1)"><path fill="#C0C0C0" stroke="none" d="M 159 432 C 159 422.6111584 182.7289056 415 212 415 C 241.2710944 415 265 422.6111584 265 432 C 265 441.3888416 241.2710944 449 212 449 C 182.7289056 449 159 441.3888416 159 432 Z" opacity="0.2"></path></g><g transform="translate(-86,-46) scale(1,1)"><path fill="#ffffff" stroke="none" d="M 152 425 C 152 415.6111584 175.7289056 408 205 408 C 234.2710944 408 258 415.6111584 258 425 C 258 434.3888416 234.2710944 442 205 442 C 175.7289056 442 152 434.3888416 152 425 Z"></path></g><g transform="translate(-86,-46) scale(1,1)"><path fill="none" stroke="#000000" d="M 152 425 C 152 415.6111584 175.7289056 408 205 408 C 234.2710944 408 258 415.6111584 258 425 C 258 434.3888416 234.2710944 442 205 442 C 175.7289056 442 152 434.3888416 152 425 Z" stroke-miterlimit="10"></path></g><g transform="translate(-86,-46) scale(1,1)"><g><path fill="none" stroke="none"></path><text fill="#000000" stroke="none" font-family="Arial" font-size="13px" font-style="normal" font-weight="bold" text-decoration="none" x="173" y="432">delete task</text></g></g><g transform="translate(-86,-46) scale(1,1)"><path fill="none" stroke="#000000" d="M 138 272 L 197 407" stroke-miterlimit="10"></path></g><g transform="translate(-86,-46) scale(1,1)"><path fill="none" stroke="#000000" d="M 189.07299137064072 399.3735634671189 L 197 407 L 196.78746343234482 396.0020534549667" stroke-miterlimit="10"></path></g><g transform="translate(-86,-46) scale(1,1)"><g><path fill="none" stroke="none"></path><text fill="#000000" stroke="none" font-family="Arial" font-size="13px" font-style="normal" font-weight="normal" text-decoration="none" x="158.5" y="338.5">+wants</text></g></g></g></svg>