<svg version="1.1" xmlns="http://www.w3.org/2000/svg" xmlns:xlink="http://www.w3.org/1999/xlink" width="540" height="308"><defs></defs><g><g transform="translate(-78,-78) scale(1,1)"><rect fill="#C0C0C0" stroke="none" x="95" y="103" width="224" height="280" opacity="0.2"></rect></g><g transform="translate(-78,-78) scale(1,1)"><rect fill="#ffffff" stroke="none" x="88" y="96" width="224" height="280"></rect></g><g transform="translate(-78,-78) scale(1,1)"><path fill="none" stroke="#000000" d="M 88 96 L 312 96 L 312 376 L 88 376 L 88 96 Z Z" stroke-miterlimit="10"></path></g><g transform="translate(-78,-78) scale(1,1)"><path fill="none" stroke="#000000" d="M 88 121 L 312 121" stroke-miterlimit="10"></path></g><g transform="translate(-78,-78) scale(1,1)"><path fill="none" stroke="#000000" d="M 88 219 L 312 219" stroke-miterlimit="10"></path></g><g transform="translate(-78,-78) scale(1,1)"><g><path fill="none" stroke="none"></path><text fill="#000000" stroke="none" font-family="Arial" font-size="13px" font-style="normal" font-weight="bold" text-decoration="none" x="185.5" y="115.5">Task</text></g></g><g transform="translate(-78,-78) scale(1,1)"><g><path fill="none" stroke="none"></path><text fill="#000000" stroke="none" font-family="Arial" font-size="13px" font-style="normal" font-weight="normal" text-decoration="none" x="93" y="138.5">+title: string</text></g></g><g transform="translate(-78,-78) scale(1,1)"><g><path fill="none" stroke="none"></path><text fill="#000000" stroke="none" font-family="Arial" font-size="13px" font-style="normal" font-weight="normal" text-decoration="none" x="93" y="153.5">+description: text</text></g></g><g transform="translate(-78,-78) scale(1,1)"><g><path fill="none" stroke="none"></path><text fill="#000000" stroke="none" font-family="Arial" font-size="13px" font-style="normal" font-weight="normal" text-decoration="none" x="93" y="168.5">+completed: boolean</text></g></g><g transform="translate(-78,-78) scale(1,1)"><g><path fill="none" stroke="none"></path><text fill="#000000" stroke="none" font-family="Arial" font-size="13px" font-style="normal" font-weight="normal" text-decoration="none" x="93" y="183.5">+due_date: datetime</text></g></g><g transform="translate(-78,-78) scale(1,1)"><g><path fill="none" stroke="none"></path><text fill="#000000" stroke="none" font-family="Arial" font-size="13px" font-style="normal" font-weight="normal" text-decoration="none" x="93" y="198.5">#created_at: datetime</text></g></g><g transform="translate(-78,-78) scale(1,1)"><g><path fill="none" stroke="none"></path><text fill="#000000" stroke="none" font-family="Arial" font-size="13px" font-style="normal" font-weight="normal" text-decoration="none" x="93" y="213.5">#updated_at: datetime</text></g></g><g transform="translate(-78,-78) scale(1,1)"><g><path fill="none" stroke="none"></path><text fill="#000000" stroke="none" font-family="Arial" font-size="13px" font-style="normal" font-weight="normal" text-decoration="none" x="93" y="236.5">-boot()</text></g></g><g transform="translate(-78,-78) scale(1,1)"><rect fill="#C0C0C0" stroke="none" x="391" y="95" width="224" height="280" opacity="0.2"></rect></g><g transform="translate(-78,-78) scale(1,1)"><rect fill="#ffffff" stroke="none" x="384" y="88" width="224" height="280"></rect></g><g transform="translate(-78,-78) scale(1,1)"><path fill="none" stroke="#000000" d="M 384 88 L 608 88 L 608 368 L 384 368 L 384 88 Z Z" stroke-miterlimit="10"></path></g><g transform="translate(-78,-78) scale(1,1)"><path fill="none" stroke="#000000" d="M 384 113 L 608 113" stroke-miterlimit="10"></path></g><g transform="translate(-78,-78) scale(1,1)"><path fill="none" stroke="#000000" d="M 384 123 L 608 123" stroke-miterlimit="10"></path></g><g transform="translate(-78,-78) scale(1,1)"><g><path fill="none" stroke="none"></path><text fill="#000000" stroke="none" font-family="Arial" font-size="13px" font-style="normal" font-weight="bold" text-decoration="none" x="454" y="107.5">TaskController</text></g></g><g transform="translate(-78,-78) scale(1,1)"><g><path fill="none" stroke="none"></path><text fill="#000000" stroke="none" font-family="Arial" font-size="13px" font-style="normal" font-weight="normal" text-decoration="none" x="389" y="140.5">+create(document_params)</text></g></g><g transform="translate(-78,-78) scale(1,1)"><g><path fill="none" stroke="none"></path><text fill="#000000" stroke="none" font-family="Arial" font-size="13px" font-style="normal" font-weight="normal" text-decoration="none" x="389" y="155.5">+update(document_params)</text></g></g><g transform="translate(-78,-78) scale(1,1)"><g><path fill="none" stroke="none"></path><text fill="#000000" stroke="none" font-family="Arial" font-size="13px" font-style="normal" font-weight="normal" text-decoration="none" x="389" y="170.5">+index(document_params)</text></g></g><g transform="translate(-78,-78) scale(1,1)"><g><path fill="none" stroke="none"></path><text fill="#000000" stroke="none" font-family="Arial" font-size="13px" font-style="normal" font-weight="normal" text-decoration="none" x="389" y="185.5">+show(id: string)</text></g></g><g transform="translate(-78,-78) scale(1,1)"><g><path fill="none" stroke="none"></path><text fill="#000000" stroke="none" font-family="Arial" font-size="13px" font-style="normal" font-weight="normal" text-decoration="none" x="389" y="200.5">+delete(id: string)</text></g></g><g transform="translate(-78,-78) scale(1,1)"><g><path fill="none" stroke="none"></path><text fill="#000000" stroke="none" font-family="Arial" font-size="13px" font-style="normal" font-weight="normal" text-decoration="none" x="389" y="215.5">+rules()</text></g></g></g></svg>